<svg version="1.1" id="Layer_1" xmlns="http://www.w3.org/2000/svg" xmlns:xlink="http://www.w3.org/1999/xlink" x="0px" y="0px"
	 width="100%" viewBox="0 0 128 128" enable-background="new 0 0 128 128" xml:space="preserve">
<path fill="#0782D3" opacity="1.000000" stroke="none" 
	d="
M129.000000,116.000000 
	C129.000000,120.328926 129.000000,124.657860 129.000000,128.993393 
	C128.837906,129.000000 128.675812,129.000000 128.513718,129.000000 
	C86.056900,129.000000 43.600090,129.000000 1.071638,129.000000 
	C1.071638,86.424545 1.071638,43.848946 1.071638,1.136671 
	C43.666370,1.136671 86.333122,1.136671 129.000000,1.136671 
	C129.000000,12.084950 129.000000,23.073816 128.700455,34.538906 
	C128.001450,35.018257 127.601982,35.021389 127.054932,34.695129 
	C123.212936,26.162346 118.349937,23.950100 106.874474,25.554615 
	C106.874474,28.897383 106.909843,32.328850 106.867271,35.759354 
	C106.772293,43.413235 102.670143,47.936916 94.640396,48.702477 
	C93.477364,48.337368 92.672745,48.038273 91.867592,48.036819 
	C74.508896,48.005463 57.150066,47.988174 39.791504,48.042633 
	C38.528625,48.046597 37.267529,48.617908 35.621250,48.976532 
	C29.608503,48.311401 25.677420,45.620697 24.841318,39.672329 
	C24.170160,34.897446 23.737665,30.089022 23.199396,25.296667 
	C14.746587,24.113161 7.569965,25.496861 3.353387,34.391396 
	C2.682477,36.239780 2.044179,37.818085 2.040036,39.398052 
	C1.976691,63.557667 1.965144,87.717621 2.063784,111.876999 
	C2.070587,113.543243 3.043247,115.205559 3.743306,117.141541 
	C7.066319,120.531998 10.212766,123.650604 13.348712,127.040993 
	C14.080658,127.542961 14.822904,127.973740 15.565577,127.974480 
	C48.158886,128.006958 80.752281,128.023026 113.345421,127.940262 
	C115.073257,127.935875 116.798889,127.057259 118.661667,126.323112 
	C123.141785,123.970718 126.097374,120.718010 127.547272,115.959724 
	C128.225311,115.972435 128.612656,115.986221 129.000000,116.000000 
M33.733971,19.000399 
	C29.313251,23.218737 31.430204,28.661587 31.471907,33.502213 
	C31.494652,36.142086 33.832172,38.762016 35.675903,42.026096 
	C36.592152,42.340771 37.507454,42.926815 38.424786,42.930004 
	C56.346153,42.992317 74.267967,43.022343 92.188889,42.919254 
	C93.456810,42.911961 94.718498,41.822197 96.567490,40.721947 
	C101.692009,35.907150 98.810265,29.710035 99.227448,24.150423 
	C99.532127,20.090254 96.919891,17.499529 92.668358,17.767412 
	C86.843094,18.134460 82.448166,17.907988 79.875237,10.813036 
	C77.572868,4.464149 70.987137,2.118893 64.115395,2.621657 
	C56.250999,3.197047 51.433899,7.809865 48.003708,15.207411 
	C45.063789,15.517765 42.082413,15.625113 39.199341,16.213852 
	C37.441673,16.572779 35.835396,17.673061 33.733971,19.000399 
z"/>
<path fill="#0068C8" opacity="1.000000" stroke="none" 
	d="
M129.000000,115.531342 
	C128.612656,115.986221 128.225311,115.972435 127.534546,115.494797 
	C127.221573,88.362144 127.212044,61.693329 127.202515,35.024521 
	C127.601982,35.021389 128.001450,35.018257 128.700455,35.007565 
	C129.000000,61.687561 129.000000,88.375122 129.000000,115.531342 
z"/>
<path fill="#FCFDFE" opacity="1.000000" stroke="none" 
	d="
M127.054932,34.695129 
	C127.212044,61.693329 127.221573,88.362144 127.243843,115.495880 
	C126.097374,120.718010 123.141785,123.970718 118.134659,126.279053 
	C115.983704,126.605652 114.495888,126.808075 113.008064,126.808090 
	C79.791779,126.808578 46.575500,126.786781 13.359215,126.769211 
	C10.212766,123.650604 7.066319,120.531998 3.683542,116.685974 
	C3.376452,92.163345 3.286392,68.368156 3.256191,44.572891 
	C3.251770,41.089478 3.532299,37.605698 3.680981,34.122089 
	C7.569965,25.496861 14.746587,24.113161 23.199396,25.296667 
	C23.737665,30.089022 24.170160,34.897446 24.841318,39.672329 
	C25.677420,45.620697 29.608503,48.311401 36.080128,49.079292 
	C56.281757,49.056347 75.640160,48.981728 94.998558,48.907112 
	C102.670143,47.936916 106.772293,43.413235 106.867271,35.759354 
	C106.909843,32.328850 106.874474,28.897383 106.874474,25.554615 
	C118.349937,23.950100 123.212936,26.162346 127.054932,34.695129 
M95.170639,90.108665 
	C95.170639,90.108665 95.248894,90.268753 95.709137,90.002457 
	C95.789848,89.668320 95.870560,89.334183 96.303970,88.335297 
	C95.945137,87.466240 95.586304,86.597183 95.138527,85.896790 
	C95.138527,85.896790 95.309570,85.981071 95.105469,85.330315 
	C94.754990,85.048843 94.404510,84.767365 93.965416,84.150650 
	C93.808128,83.944672 93.601990,83.864845 93.056976,83.357094 
	C92.701981,83.157196 92.346985,82.957298 92.008621,83.005783 
	C92.008621,83.005783 92.257004,82.989105 92.063683,82.399376 
	C91.734688,82.161407 91.405701,81.923431 90.810295,81.097977 
	C88.264603,78.715912 85.718910,76.333855 82.969711,73.462090 
	C82.675255,73.288055 82.380798,73.114014 81.642403,72.325089 
	C80.120949,72.860397 78.599487,73.395706 77.078041,73.931007 
	C77.647041,75.361130 77.858879,77.139359 78.850899,78.157188 
	C82.037056,81.426239 85.511482,84.414337 88.900459,87.534523 
	C84.933830,91.520851 81.522804,94.650978 78.528786,98.139038 
	C77.629265,99.186981 77.891144,101.231827 77.620979,102.819977 
	C79.361176,102.801956 81.618118,103.471733 82.739090,102.629532 
	C85.471870,100.576340 87.678238,97.822487 90.626213,95.071732 
	C90.826653,94.732834 91.027092,94.393936 91.637505,93.974525 
	C91.920937,93.844978 92.070953,93.624603 92.650574,93.069572 
	C92.885719,92.741776 93.120872,92.413979 93.741692,92.004288 
	C93.992569,91.852715 94.111351,91.630531 94.669769,91.071968 
	C94.890984,90.726692 95.112198,90.381416 95.170639,90.108665 
M71.897385,64.994453 
	C70.613678,65.899490 68.571083,66.546913 68.162979,67.749176 
	C63.802589,80.594757 59.601051,93.497879 55.664806,106.478874 
	C55.213192,107.968224 56.639683,110.027077 57.195377,111.821869 
	C58.582207,110.709091 60.746700,109.863159 61.234386,108.441856 
	C65.636795,95.611626 69.814003,82.701805 73.822380,69.742668 
	C74.179489,68.588120 72.879677,66.921082 71.897385,64.994453 
M48.630089,79.126534 
	C49.009270,78.804031 49.412766,78.505821 49.763466,78.154861 
	C51.377934,76.539185 53.891235,74.690285 51.320419,72.577087 
	C50.420990,71.837753 47.054600,73.040192 45.576653,74.270866 
	C41.767712,77.442528 38.388294,81.129333 34.829449,84.602318 
	C32.969845,86.417053 31.908974,88.384186 34.134247,90.586487 
	C38.375954,94.784447 42.561764,99.062126 47.104527,102.913002 
	C48.009964,103.680534 50.409180,102.685890 52.119591,102.503822 
	C51.649502,100.959671 51.629276,98.973671 50.626511,97.952690 
	C47.379318,94.646530 43.771481,91.694580 39.921532,88.266960 
	C43.174728,84.835754 45.649197,82.225891 48.630089,79.126534 
z"/>
<path fill="#FCFDFE" opacity="1.000000" stroke="none" 
	d="
M35.125740,41.390945 
	C33.832172,38.762016 31.494652,36.142086 31.471907,33.502213 
	C31.430204,28.661587 29.313251,23.218737 34.389366,18.585024 
	C38.464783,18.048037 41.919243,18.165886 45.287113,17.681593 
	C46.553493,17.499489 47.619003,15.920505 48.776089,14.978348 
	C51.433899,7.809865 56.250999,3.197047 64.115395,2.621657 
	C70.987137,2.118893 77.572868,4.464149 79.875237,10.813036 
	C82.448166,17.907988 86.843094,18.134460 92.668358,17.767412 
	C96.919891,17.499529 99.532127,20.090254 99.227448,24.150423 
	C98.810265,29.710035 101.692009,35.907150 95.816490,41.023842 
	C75.085571,41.347469 55.105656,41.369205 35.125740,41.390945 
M73.091240,18.664965 
	C72.363350,14.281598 69.580727,11.226430 65.399910,12.119677 
	C62.615597,12.714556 59.448715,15.566996 58.193222,18.229561 
	C56.674091,21.451237 58.953953,24.572149 62.197403,26.301786 
	C66.741257,28.724892 71.580948,25.659286 73.091240,18.664965 
z"/>
<path fill="#006CCA" opacity="1.000000" stroke="none" 
	d="
M13.348715,127.040985 
	C46.575500,126.786781 79.791779,126.808578 113.008064,126.808090 
	C114.495888,126.808075 115.983704,126.605652 117.998535,126.541565 
	C116.798889,127.057259 115.073257,127.935875 113.345421,127.940262 
	C80.752281,128.023026 48.158886,128.006958 15.565577,127.974480 
	C14.822904,127.973740 14.080658,127.542961 13.348715,127.040985 
z"/>
<path fill="#006ACA" opacity="1.000000" stroke="none" 
	d="
M3.353387,34.391396 
	C3.532299,37.605698 3.251770,41.089478 3.256191,44.572891 
	C3.286392,68.368156 3.376452,92.163345 3.506975,116.414124 
	C3.043247,115.205559 2.070587,113.543243 2.063784,111.876999 
	C1.965144,87.717621 1.976691,63.557667 2.040036,39.398052 
	C2.044179,37.818085 2.682477,36.239780 3.353387,34.391396 
z"/>
<path fill="#0066C8" opacity="1.000000" stroke="none" 
	d="
M35.400822,41.708519 
	C55.105656,41.369205 75.085571,41.347469 95.524284,41.280754 
	C94.718498,41.822197 93.456810,42.911961 92.188889,42.919254 
	C74.267967,43.022343 56.346153,42.992317 38.424786,42.930004 
	C37.507454,42.926815 36.592152,42.340771 35.400822,41.708519 
z"/>
<path fill="#006ECB" opacity="1.000000" stroke="none" 
	d="
M94.640396,48.702477 
	C75.640160,48.981728 56.281757,49.056347 36.464478,49.028206 
	C37.267529,48.617908 38.528625,48.046597 39.791504,48.042633 
	C57.150066,47.988174 74.508896,48.005463 91.867592,48.036819 
	C92.672745,48.038273 93.477364,48.337368 94.640396,48.702477 
z"/>
<path fill="#2F88D5" opacity="1.000000" stroke="none" 
	d="
M48.389900,15.092880 
	C47.619003,15.920505 46.553493,17.499489 45.287113,17.681593 
	C41.919243,18.165886 38.464783,18.048037 34.602936,18.305000 
	C35.835396,17.673061 37.441673,16.572779 39.199341,16.213852 
	C42.082413,15.625113 45.063789,15.517765 48.389900,15.092880 
z"/>
<path fill="#0C7FD2" opacity="1.000000" stroke="none" 
	d="
M72.123390,65.243256 
	C72.879677,66.921082 74.179489,68.588120 73.822380,69.742668 
	C69.814003,82.701805 65.636795,95.611626 61.234386,108.441856 
	C60.746700,109.863159 58.582207,110.709091 57.195374,111.821869 
	C56.639683,110.027077 55.213192,107.968224 55.664806,106.478874 
	C59.601051,93.497879 63.802589,80.594757 68.162979,67.749176 
	C68.571083,66.546913 70.613678,65.899490 72.123390,65.243256 
z"/>
<path fill="#0A7FD2" opacity="1.000000" stroke="none" 
	d="
M48.376877,79.371277 
	C45.649197,82.225891 43.174728,84.835754 39.921532,88.266960 
	C43.771481,91.694580 47.379318,94.646530 50.626511,97.952690 
	C51.629276,98.973671 51.649502,100.959671 52.119591,102.503815 
	C50.409180,102.685890 48.009964,103.680534 47.104527,102.913002 
	C42.561764,99.062126 38.375954,94.784447 34.134247,90.586487 
	C31.908974,88.384186 32.969845,86.417053 34.829449,84.602318 
	C38.388294,81.129333 41.767712,77.442528 45.576653,74.270866 
	C47.054600,73.040192 50.420990,71.837753 51.320419,72.577087 
	C53.891235,74.690285 51.377934,76.539185 49.763466,78.154861 
	C49.412766,78.505821 49.009270,78.804031 48.376877,79.371277 
z"/>
<path fill="#097FD2" opacity="1.000000" stroke="none" 
	d="
M93.347000,83.911171 
	C93.601990,83.864845 93.808128,83.944672 94.191406,84.591034 
	C94.714783,85.347969 95.012177,85.664520 95.309570,85.981071 
	C95.309570,85.981071 95.138527,85.896790 95.125656,86.220337 
	C95.074348,87.362648 95.035912,88.181412 95.049911,89.319382 
	C95.151199,89.848640 95.200043,90.058693 95.248894,90.268753 
	C95.248894,90.268753 95.170639,90.108665 95.019653,90.265900 
	C94.611786,90.727989 94.354912,91.032860 94.098038,91.337723 
	C94.111351,91.630531 93.992569,91.852715 93.308914,92.219131 
	C92.613281,92.727119 92.350418,93.020256 92.087555,93.313400 
	C92.070953,93.624603 91.920937,93.844978 91.216255,94.205345 
	C90.562195,94.741035 90.329391,95.045906 90.096573,95.350769 
	C87.678238,97.822487 85.471870,100.576340 82.739090,102.629532 
	C81.618118,103.471733 79.361176,102.801956 77.620979,102.819977 
	C77.891144,101.231827 77.629265,99.186981 78.528786,98.139038 
	C81.522804,94.650978 84.933830,91.520851 88.900459,87.534523 
	C85.511482,84.414337 82.037056,81.426239 78.850899,78.157188 
	C77.858879,77.139359 77.647041,75.361130 77.078033,73.931007 
	C78.599487,73.395706 80.120949,72.860397 81.825043,72.808792 
	C82.396202,73.512253 82.784706,73.732018 83.173218,73.951790 
	C85.718910,76.333855 88.264603,78.715912 91.116173,81.629196 
	C91.700371,82.436646 91.978683,82.712875 92.257004,82.989105 
	C92.257004,82.989105 92.008621,83.005783 92.209366,83.093979 
	C92.722404,83.425179 93.034706,83.668175 93.347000,83.911171 
z"/>
<path fill="#046FCC" opacity="1.000000" stroke="none" 
	d="
M94.997467,89.000175 
	C95.035912,88.181412 95.074348,87.362648 95.170128,86.136002 
	C95.586304,86.597183 95.945137,87.466240 95.889168,88.667740 
	C95.474365,89.000191 94.997467,89.000175 94.997467,89.000175 
z"/>
<path fill="#046FCC" opacity="1.000000" stroke="none" 
	d="
M83.071465,73.706940 
	C82.784706,73.732018 82.396202,73.512253 82.047012,73.116234 
	C82.380798,73.114014 82.675255,73.288055 83.071465,73.706940 
z"/>
<path fill="#046FCC" opacity="1.000000" stroke="none" 
	d="
M92.160339,82.694244 
	C91.978683,82.712875 91.700371,82.436646 91.249382,81.922935 
	C91.405701,81.923431 91.734688,82.161407 92.160339,82.694244 
z"/>
<path fill="#046FCC" opacity="1.000000" stroke="none" 
	d="
M93.201988,83.634132 
	C93.034706,83.668175 92.722404,83.425179 92.201050,82.969788 
	C92.346985,82.957298 92.701981,83.157196 93.201988,83.634132 
z"/>
<path fill="#046FCC" opacity="1.000000" stroke="none" 
	d="
M95.207520,85.655693 
	C95.012177,85.664520 94.714783,85.347969 94.235710,84.758652 
	C94.404510,84.767365 94.754990,85.048843 95.207520,85.655693 
z"/>
<path fill="#0470CC" opacity="1.000000" stroke="none" 
	d="
M95.049911,89.319382 
	C94.997467,89.000175 95.474365,89.000191 95.712814,89.000122 
	C95.870560,89.334183 95.789848,89.668320 95.479019,90.135605 
	C95.200043,90.058693 95.151199,89.848640 95.049911,89.319382 
z"/>
<path fill="#0470CC" opacity="1.000000" stroke="none" 
	d="
M94.383904,91.204849 
	C94.354912,91.032860 94.611786,90.727989 95.101036,90.229637 
	C95.112198,90.381416 94.890984,90.726692 94.383904,91.204849 
z"/>
<path fill="#0470CC" opacity="1.000000" stroke="none" 
	d="
M92.369064,93.191483 
	C92.350418,93.020256 92.613281,92.727119 93.116089,92.260078 
	C93.120872,92.413979 92.885719,92.741776 92.369064,93.191483 
z"/>
<path fill="#0470CC" opacity="1.000000" stroke="none" 
	d="
M90.361397,95.211258 
	C90.329391,95.045906 90.562195,94.741035 91.011269,94.245605 
	C91.027092,94.393936 90.826653,94.732834 90.361397,95.211258 
z"/>
<path fill="#067FD2" opacity="1.000000" stroke="none" 
	d="
M73.107231,19.063698 
	C71.580948,25.659286 66.741257,28.724892 62.197403,26.301786 
	C58.953953,24.572149 56.674091,21.451237 58.193222,18.229561 
	C59.448715,15.566996 62.615597,12.714556 65.399910,12.119677 
	C69.580727,11.226430 72.363350,14.281598 73.107231,19.063698 
z"/>
</svg>